<svg width="147" height="60" viewBox="0 0 147 60" fill="none" xmlns="http://www.w3.org/2000/svg">
<g clip-path="url(#clip0_460_948)">
<path d="M3.33446 59.7219H0L6.20187 46.8141C6.22867 46.7531 6.26695 46.7227 6.31672 46.7227C6.36649 46.7227 6.40477 46.7531 6.42774 46.8141L12.6105 59.7219H9.08842L8.60222 58.6396H3.80535L3.33829 59.7219H3.33446ZM6.16359 53.1556L4.88876 56.1015H7.47287L6.15976 53.1556H6.16359Z" fill="black"/>
<path d="M23.7008 55.4497V52.8392H29.7151C29.7151 52.8773 29.7151 52.9421 29.7265 53.0336C29.7304 53.1288 29.7342 53.2432 29.7342 53.3804C29.7342 54.4627 29.5811 55.4078 29.2825 56.2233C28.9838 57.0389 28.5589 57.7172 28.0191 58.266C27.4755 58.811 26.817 59.2226 26.0437 59.497C25.2704 59.7714 24.4128 59.9085 23.4749 59.9085C22.537 59.9085 21.7215 59.7447 20.9176 59.4246C20.1098 59.1006 19.4054 58.6509 18.8005 58.0717C18.1957 57.4924 17.7133 56.8064 17.3573 56.0099C17.0012 55.2134 16.8213 54.3369 16.8213 53.3804C16.8213 52.4238 16.9974 51.5473 17.3458 50.7508C17.6941 49.9543 18.1689 49.2721 18.7699 48.7005C19.3709 48.1288 20.0715 47.6829 20.8716 47.3666C21.6718 47.0465 22.5217 46.8903 23.4175 46.8903C24.6579 46.8903 25.7374 47.1418 26.6677 47.6448C27.598 48.1479 28.3139 48.8491 28.8116 49.7447L26.0973 51.3834C25.8446 50.9489 25.5077 50.5793 25.0751 50.282C24.6425 49.981 24.0721 49.8361 23.3601 49.8361C22.8471 49.8361 22.3991 49.9276 22.0201 50.1067C21.6373 50.2858 21.3234 50.5374 21.0745 50.8537C20.8257 51.17 20.6343 51.5473 20.5041 51.9817C20.374 52.4162 20.3051 52.8811 20.3051 53.3804C20.3051 53.8796 20.374 54.3445 20.5118 54.779C20.6496 55.2134 20.8487 55.5945 21.1128 55.9185C21.3732 56.2424 21.7062 56.4977 22.1044 56.6807C22.5025 56.8674 22.9657 56.9589 23.4902 56.9589C24.275 56.9589 24.8684 56.8255 25.2589 56.5587C25.6532 56.2919 25.948 55.9223 26.1471 55.4497H23.6931H23.7008Z" fill="black"/>
<path d="M39.6073 59.7219H36.1963V47.0389H41.0315C41.8928 47.0389 42.6547 47.1647 43.317 47.42C43.9793 47.6754 44.5382 48.026 44.9938 48.4757C45.4493 48.9254 45.7939 49.4475 46.0312 50.0534C46.2686 50.6556 46.3873 51.311 46.3873 52.0199C46.3873 52.7287 46.2686 53.3842 46.0312 53.9864C45.7939 54.5885 45.4455 55.1144 44.9938 55.5527C44.5382 55.9947 43.9793 56.3415 43.317 56.5969C42.6547 56.8522 41.8928 56.978 41.0315 56.978H39.6073V59.7219ZM40.863 54.1045C41.6248 54.1045 42.1646 53.9101 42.4824 53.5252C42.8001 53.1403 42.9609 52.6373 42.9609 52.0161C42.9609 51.7036 42.9265 51.4216 42.8499 51.1662C42.7772 50.9109 42.6508 50.6899 42.4862 50.5031C42.3178 50.3164 42.1034 50.1716 41.8392 50.0649C41.5751 49.9581 41.2535 49.9048 40.863 49.9048H39.6073V54.1007H40.863V54.1045Z" fill="black"/>
<path d="M66.7735 59.8705C66.7505 59.9314 66.7122 59.9657 66.6625 59.9657C66.6127 59.9657 66.5744 59.9353 66.5514 59.8705L61.2109 47.0389H64.7904L67.1716 52.9878L69.905 46.795C69.9548 46.6692 70.0046 46.6692 70.0543 46.795L72.9218 52.9878L75.1881 47.0389H78.5991L73.3352 59.8705C73.274 60.0458 73.1974 60.0458 73.1132 59.8705L69.928 53.0641L66.7811 59.8705H66.7735Z" fill="black"/>
<path d="M89.8393 59.8857C88.9167 59.8857 88.04 59.7295 87.2169 59.4094C86.3938 59.0931 85.6665 58.6434 85.0463 58.0641C84.4184 57.4848 83.9246 56.7988 83.5532 56.0024C83.1857 55.2059 83.002 54.3293 83.002 53.3728C83.002 52.4162 83.1857 51.5397 83.5532 50.7432C83.9207 49.9467 84.4184 49.2645 85.0463 48.6929C85.6703 48.1213 86.3938 47.6754 87.2169 47.3591C88.04 47.0389 88.9167 46.8827 89.8393 46.8827C90.762 46.8827 91.6233 47.0389 92.4541 47.3591C93.281 47.6754 94.0122 48.1213 94.6362 48.6929C95.2602 49.2645 95.7579 49.9467 96.1254 50.7432C96.4929 51.5397 96.6805 52.4162 96.6805 53.3728C96.6805 54.3293 96.4968 55.2059 96.1254 56.0024C95.7579 56.7988 95.2602 57.4848 94.6362 58.0641C94.0122 58.6434 93.281 59.0892 92.4541 59.4094C91.6233 59.7257 90.7505 59.8857 89.8393 59.8857ZM89.8393 56.9399C90.3753 56.9399 90.8538 56.8446 91.2635 56.6578C91.6731 56.4711 92.0253 56.2196 92.3124 55.9033C92.5957 55.587 92.8178 55.2097 92.9671 54.7752C93.1164 54.3408 93.1929 53.8758 93.1929 53.3766C93.1929 52.8774 93.1164 52.4124 92.9671 51.978C92.8178 51.5435 92.5957 51.1662 92.3124 50.8499C92.0253 50.5336 91.6731 50.2859 91.2635 50.103C90.8538 49.9239 90.3753 49.8324 89.8393 49.8324C89.3034 49.8324 88.8287 49.9239 88.4152 50.103C88.0017 50.2821 87.6534 50.5336 87.3662 50.8499C87.0791 51.1662 86.8609 51.5435 86.7116 51.978C86.5623 52.4124 86.4857 52.8774 86.4857 53.3766C86.4857 53.8758 86.5585 54.3408 86.7116 54.7752C86.8609 55.2097 87.0791 55.587 87.3662 55.9033C87.6534 56.2196 88.0017 56.4711 88.4152 56.6578C88.8287 56.8446 89.3034 56.9399 89.8393 56.9399Z" fill="black"/>
<path d="M113.295 59.7219H109.605L107.825 56.8103H106.55V59.7219H103.139V47.0389H107.974C108.835 47.0389 109.597 47.1647 110.259 47.42C110.922 47.6754 111.481 48.026 111.936 48.4757C112.396 48.9254 112.744 49.4475 112.977 50.0534C113.215 50.6556 113.333 51.311 113.333 52.0199C113.333 52.9421 113.134 53.7539 112.744 54.4551C112.35 55.1563 111.779 55.7127 111.029 56.1243L113.299 59.7257L113.295 59.7219ZM107.813 54.1045C108.579 54.1045 109.122 53.9101 109.44 53.5252C109.762 53.1365 109.919 52.6335 109.919 52.0085C109.919 51.696 109.88 51.4139 109.808 51.1548C109.731 50.8995 109.609 50.6746 109.44 50.4917C109.268 50.3049 109.053 50.1563 108.789 50.0534C108.525 49.9467 108.2 49.8934 107.813 49.8934H106.55V54.1083H107.813V54.1045Z" fill="black"/>
<path d="M119.796 47.0389H123.207V56.8674H128.624V59.7219H119.8V47.0389H119.796Z" fill="black"/>
<path d="M135.066 47.039H139.993C140.905 47.039 141.754 47.1838 142.543 47.4772C143.328 47.7707 144.013 48.1899 144.595 48.7349C145.173 49.2798 145.629 49.9467 145.954 50.7318C146.28 51.513 146.44 52.3972 146.44 53.3804C146.44 54.3637 146.276 55.244 145.954 56.0291C145.629 56.8103 145.177 57.4772 144.595 58.0222C144.013 58.5672 143.332 58.9902 142.543 59.2798C141.754 59.5733 140.905 59.7181 139.993 59.7181H135.066V47.0352V47.039ZM139.618 56.8484C140.656 56.8484 141.467 56.5359 142.061 55.9071C142.654 55.2783 142.953 54.4361 142.953 53.3804C142.953 52.3248 142.654 51.4826 142.061 50.8538C141.467 50.2249 140.656 49.9086 139.618 49.9086H138.477V56.8484H139.618Z" fill="black"/>
<path d="M45.3002 38.3575H3.48352C3.00881 38.3575 2.62598 38.125 2.62598 37.8392C2.62598 37.5534 3.00881 37.3209 3.48352 37.3209H45.2964C45.7711 37.3209 46.1539 37.5534 46.1539 37.8392C46.1539 38.125 45.7711 38.3575 45.2964 38.3575H45.3002Z" fill="black"/>
<path d="M142.957 38.3575H101.144C100.669 38.3575 100.286 38.125 100.286 37.8392C100.286 37.5534 100.669 37.3209 101.144 37.3209H142.957C143.431 37.3209 143.814 37.5534 143.814 37.8392C143.814 38.125 143.431 38.3575 142.957 38.3575Z" fill="black"/>
<path d="M86.1683 34.9467L85.8008 34.5808L95.5668 24.859L85.8008 15.1372L86.1683 14.7714L96.298 24.859L86.1683 34.9467Z" fill="black"/>
<path d="M86.1683 32.6867L85.8008 32.3209L93.2966 24.859L85.8008 17.3971L86.1683 17.0312L94.0317 24.859L86.1683 32.6867Z" fill="black"/>
<path d="M60.2771 34.9467L50.1436 24.859L60.2771 14.7714L60.6446 15.1334L50.8748 24.859L60.6446 34.5808L60.2771 34.9467Z" fill="black"/>
<path d="M60.2774 32.6868L52.4141 24.859L60.2774 17.0275L60.6449 17.3933L53.1453 24.859L60.6449 32.3209L60.2774 32.6868Z" fill="black"/>
<path d="M86.3022 37.9916H74.3081L74.2852 37.4771C80.2573 37.0008 85.0887 32.359 85.7854 26.4406L86.3022 26.471V37.9916ZM77.0722 37.4733H85.7854V28.9024C84.4838 33.0069 81.1991 36.2271 77.0722 37.4733Z" fill="black"/>
<path d="M85.7853 23.5061C85.0311 17.0922 80.5252 12.6448 74.5645 12.4466L74.2773 12.4352L74.3156 11.8978L74.576 11.9093H86.2983V23.4794L85.7814 23.5099L85.7853 23.5061ZM77.6692 12.4237C81.5741 13.5823 84.5449 16.6654 85.7814 20.8879V12.4237H77.6692Z" fill="black"/>
<path d="M60.7522 23.5067L60.2354 23.4763V11.9061H72.2371L72.2142 12.3863L71.9883 12.4435C66.0161 12.6378 61.5025 17.0814 60.7522 23.5067ZM60.7522 12.4206V20.8848C61.9926 16.6622 64.9633 13.5791 68.8644 12.4206H60.7522Z" fill="black"/>
<path d="M72.2334 37.9915H60.2393V26.4671L60.7561 26.4366C61.449 32.3589 66.288 37.0007 72.2563 37.477L72.2372 37.9915H72.2334ZM60.7561 37.4732H69.4693C65.3424 36.227 62.0577 33.0068 60.7561 28.9023V37.4732Z" fill="black"/>
<path d="M74.063 33.285C69.0249 33.285 64.9248 29.2035 64.9248 24.1882C64.9248 19.173 69.0249 15.0914 74.063 15.0914C79.1011 15.0914 83.2012 19.1692 83.2012 24.1882C83.2012 29.2073 79.1011 33.285 74.063 33.285ZM74.063 15.6097C69.3121 15.6097 65.4455 19.4626 65.4455 24.192C65.4455 28.9215 69.3121 32.7744 74.063 32.7744C78.8139 32.7744 82.6844 28.9253 82.6844 24.192C82.6844 19.4588 78.8178 15.6097 74.063 15.6097Z" fill="black"/>
<path d="M74.0667 35.0609H74.0629C68.0409 35.0609 63.1445 30.1828 63.1445 24.1882C63.1445 21.3681 64.2241 18.6966 66.1842 16.6615L66.5594 17.0197C64.6912 18.9557 63.6652 21.5014 63.6652 24.1882C63.6652 29.897 68.3319 34.5426 74.0667 34.5426H74.0705C76.6814 34.5426 79.1775 33.5746 81.0993 31.8178L81.4515 32.1988C79.434 34.0434 76.8116 35.0609 74.0705 35.0609H74.0667Z" fill="black"/>
<path d="M80.2727 30.4606L79.9053 30.8278L81.3319 32.2425L81.6994 31.8753L80.2727 30.4606Z" fill="black"/>
<path d="M67.4172 18.3917L65.9395 17.0122L66.2955 16.6349L67.7732 18.0183L67.4172 18.3917Z" fill="black"/>
<path d="M73.4164 9.03963L68.876 4.51982L73.4164 0L77.9567 4.51982L73.4164 9.03963ZM69.611 4.51982L73.4164 8.30793L77.2217 4.51982L73.4164 0.727896L69.611 4.51982Z" fill="black"/>
<path d="M75.6671 6.76064H71.165V2.27893H75.6671V6.76064ZM71.6819 6.24234H75.1465V2.79341H71.6819V6.24234Z" fill="black"/>
<path d="M75.5059 24.8971C75.747 25.1524 75.7738 25.6174 76.1184 25.766C75.9882 25.4344 75.7624 24.9276 75.5059 24.8971Z" fill="black"/>
<path d="M76.4781 23.4679C76.2867 23.4603 76.2025 23.567 76.1719 23.7232C76.2982 23.8681 76.4207 23.9367 76.325 24.1806C76.4437 24.1806 76.4781 24.2682 76.6313 24.2339C76.6198 24.0662 76.4437 23.9633 76.6313 23.8757C76.4475 23.8757 76.3174 23.6813 76.4781 23.4679Z" fill="black"/>
<path d="M68.435 20.968C68.3125 20.9985 68.0637 20.9032 68.0254 21.0175C68.1747 21.0671 68.4159 21.2004 68.435 20.968Z" fill="black"/>
<path d="M75.6084 24.2835C75.3519 24.2873 75.3557 24.4512 75.149 24.5007C75.1069 24.394 74.9384 24.4131 75.0456 24.4131H74.8925C74.8925 24.4131 74.8848 24.2568 74.8427 24.2454C74.8274 24.3445 74.9116 24.2378 74.9461 24.2911C74.8466 24.2759 74.8466 24.3064 74.793 24.3407C74.7087 24.0167 74.4829 23.8071 74.2302 23.6509C74.257 23.8795 74.4637 23.9138 74.5901 24.0472C74.4293 24.0472 74.5556 24.2187 74.3833 24.2949C74.3833 24.2263 74.2953 24.2454 74.2838 24.1882C74.4025 24.2035 74.4752 24.173 74.4867 24.0815C74.3144 23.9824 74.1613 23.8605 74.0273 23.7271C73.656 23.8338 73.5335 24.1882 73.2578 24.3864C73.6483 24.3559 73.8282 24.1311 74.1804 24.2873C74.1843 24.375 74.169 24.4436 74.1307 24.4893C74.3757 24.5045 74.4829 24.6494 74.6934 24.6951C74.7777 24.3712 75.3021 24.7218 75.5127 24.6455C75.551 24.5312 75.6199 24.4436 75.6161 24.2873L75.6084 24.2835Z" fill="black"/>
<path d="M74.5833 22.9573C74.591 22.66 74.924 22.6333 74.6828 22.5495C74.813 22.397 74.9661 22.58 75.0427 22.3971C74.7709 22.458 74.6178 22.4656 74.5833 22.1913C74.6407 22.0769 74.7518 22.0198 74.7862 21.8826C74.2081 21.9969 74.6982 22.8772 74.0703 22.9535C74.2962 23.0068 74.4646 22.8506 74.5833 22.9535V22.9573Z" fill="black"/>
<path d="M75.8653 23.9786C75.8806 23.7309 75.5016 23.9329 75.6624 23.6242H75.5093C75.5093 23.6242 75.5858 23.6852 75.6126 23.7233C75.5437 23.7233 75.5093 23.6966 75.5093 23.7233V23.5708C75.1992 23.5556 75.1877 23.7385 75.1494 23.9024C75.3868 23.9748 75.5476 23.9176 75.8653 23.9786Z" fill="black"/>
<path d="M81.1561 28.8185C81.0527 28.8338 81.1676 28.6699 81.2097 28.6661C81.1905 28.5937 81.1178 28.6623 81.1063 28.7156C80.8996 28.1554 80.2143 28.7652 79.8774 28.6661C80.0305 28.3879 79.7779 28.0259 79.9272 27.7477C80.3024 27.66 80.5129 27.4123 80.7464 27.1874C80.7924 27.2103 80.8383 27.2332 80.8498 27.2865C80.9838 27.1036 81.0757 27.0083 81.3628 27.0846C81.3169 27.1265 81.3322 27.2256 81.2594 27.237C81.3015 27.3513 81.4355 27.3628 81.5159 27.4428C81.6767 27.4161 81.5925 27.1455 81.6691 27.035C81.7839 27.1417 81.872 27.2713 81.872 27.4923C81.9753 27.5685 82.0442 27.6562 82.094 27.7515C82.5917 26.6539 82.875 25.442 82.875 24.1615C82.875 22.881 82.6223 21.7873 82.1744 20.7393C82.1093 20.846 82.0442 20.9603 82.0251 21.1166C81.8452 21.0594 81.6614 20.907 81.6652 21.2157L81.6116 21.0137C81.4394 21.0975 81.4968 21.2195 81.359 21.0137C81.2671 21.0289 81.114 21.3986 81.3054 21.3719C80.9647 21.4519 80.4631 21.5129 80.4861 22.0846C80.9225 22.1379 81.1599 22.3856 81.2058 22.9001C81.0106 22.8391 81.0872 22.5038 80.9493 22.3894C80.9493 22.6257 81.0029 23.0487 80.7962 23.3117C80.712 23.3269 80.7082 23.2621 80.6431 23.2621C80.6048 23.3765 80.6124 23.5403 80.4899 23.567C80.555 23.7042 80.7158 23.7499 80.6928 23.9748C80.601 23.9672 80.5856 24.0358 80.4899 24.0281C80.6201 23.8147 80.3713 23.849 80.3866 23.6166C80.1875 23.6089 80.0612 23.7157 80.1837 23.5137C79.9884 23.4603 80.1033 23.7042 79.9272 23.6661C80.0037 23.8338 80.042 23.7919 80.2373 23.769C80.1454 24.1539 80.5512 24.9047 79.774 24.9923C79.6286 24.9695 79.9042 25.1829 79.7205 25.1943C79.4716 25.1943 79.8391 25.08 79.6707 24.9923C79.5329 24.9542 79.5673 25.0914 79.4678 25.0914C79.5022 25.3315 79.7779 25.3277 79.7205 25.6554C79.6554 25.705 79.529 25.705 79.5175 25.8079C79.4295 25.6897 79.2725 25.6478 79.2113 25.503C78.8667 25.7621 79.663 26.1509 79.3146 26.2195C79.3797 26.2614 79.4563 26.5472 79.5175 26.4214C79.6707 26.4672 79.4525 26.551 79.5175 26.6768C79.1845 26.6006 79.1807 26.2004 78.9012 26.0632C79.0428 25.8917 79.1424 26.1928 79.261 26.2156C79.0964 25.6935 78.9586 25.3315 78.5949 24.939C77.9594 25.1181 78.1853 25.5525 77.7757 25.8574C77.7221 25.6974 77.523 25.4306 77.5192 25.0914C77.366 25.1829 77.301 24.8666 77.1095 24.7865C76.765 24.6379 76.2443 24.8323 76.0338 24.4817C75.9304 24.6684 76.275 24.7065 76.2367 24.8894C76.3056 24.8361 76.4243 24.8399 76.4434 24.737C76.5353 24.7827 76.5047 24.9428 76.6999 24.8894C76.6501 25.3849 76.1601 25.442 75.7773 25.6021C75.8117 25.7888 76.0989 25.6631 76.1869 25.6021C76.3247 26.0975 75.7122 26.2881 75.5208 26.6234C75.5667 26.8368 75.6509 27.0007 75.6241 27.2827C75.494 27.3399 75.4327 27.4695 75.2681 27.4885C75.2758 27.9992 74.9312 28.487 74.2957 28.5099C74.1503 28.144 74.0507 27.7362 73.8861 27.3894C74.0813 27.0426 74.0086 26.6615 73.733 26.4176C73.71 26.2957 73.8248 26.3071 73.7827 26.1623C73.2965 25.7926 72.439 26.3338 72.194 25.5487C72.1978 25.3277 72.2973 25.1753 72.194 24.9885C72.4237 24.7103 72.6457 24.4169 72.8601 24.1196C72.8257 24.0205 72.7031 24.4283 72.6534 24.3406C72.7223 24.2759 72.7031 24.4092 72.7031 24.4092H73.1166C73.1434 24.4092 73.0745 23.7195 72.9635 23.6775C73.2774 23.6013 73.3386 23.0525 73.6832 23.0068C73.6832 22.8849 73.5951 22.7515 73.6296 22.5952C73.7712 22.5876 73.8057 22.6219 73.733 22.6981C73.7751 22.6867 73.7827 22.6219 73.8325 22.6219C73.9588 22.5876 73.7368 22.4695 73.7789 22.3513C73.6258 22.3132 73.6832 22.4847 73.5262 22.4466C73.4382 22.3628 73.4841 22.1455 73.4765 21.9817C73.7444 21.9092 73.9741 21.4862 73.8861 21.3681C74.1273 21.2004 74.2957 21.0442 74.602 21.0594C74.6518 21.3681 75.2337 21.1471 75.1648 21.5663C75.0269 21.5663 74.8738 21.5853 74.8049 21.5167C74.8853 21.6044 74.9044 21.7568 75.0078 21.8216C75.0767 21.6806 75.069 21.6615 75.3179 21.5167C75.3179 21.4367 75.3409 21.3224 75.2681 21.3109C75.4174 21.1737 75.383 21.4024 75.4212 21.4634C75.5552 21.2195 75.8309 21.1928 76.0376 21.208C76.0567 21.1051 76.0261 21.048 75.9342 21.0556C76.007 20.9717 76.3094 21.0899 76.3975 21.1585C76.3745 21.0251 76.1984 20.8346 76.2941 20.4954C76.4511 20.564 76.5238 20.7126 76.5544 20.9032C76.6923 20.8574 76.4817 20.7431 76.5544 20.5945C76.6004 20.6326 76.631 20.6897 76.654 20.7507C76.654 20.6516 76.7573 20.5373 76.9602 20.6478C76.8837 20.5868 76.7458 20.4077 76.7037 20.5945C76.6233 20.5106 76.853 20.3048 77.01 20.2896C76.6999 19.8856 77.5421 19.9657 77.3163 19.5236C77.4847 19.4626 77.6034 19.6836 77.879 19.5769C78.059 19.6989 78.036 19.9352 77.9326 20.141C78.1049 20.1905 78.0092 19.9809 78.0322 19.8818C78.1164 20.1448 78.2925 19.9123 78.5949 20.0342C78.6294 19.9047 78.6294 19.9009 78.8017 19.8323C78.9701 19.9047 79.0046 20.1028 79.1577 20.1905C79.2611 20.0266 79.2649 20.0342 79.5137 19.9847C79.5329 19.8589 79.4218 19.8742 79.464 19.7294C79.7051 19.5846 79.931 19.8246 80.0803 19.8285C80.2105 19.8361 80.3292 19.7103 80.4363 19.7294C80.5359 19.7408 80.578 19.9123 80.6928 19.9314C80.8268 19.9542 80.957 19.6722 81.1522 19.6265C81.3054 19.5884 81.4547 19.615 81.6078 19.6455C80.065 17.0998 77.2703 15.3887 74.0699 15.3887C70.8694 15.3887 67.8106 17.2522 66.3213 19.9923C66.4745 20.099 66.6506 20.1867 66.7042 20.3925C67.1368 20.1753 67.2708 20.4954 67.5234 20.442C67.5234 20.6173 67.6727 20.6859 67.7799 20.7507C67.9331 20.705 67.6612 20.5983 67.7302 20.5983H67.9867C67.9867 20.5983 67.7608 20.5297 67.7302 20.4458C67.8756 20.3963 67.7608 20.2515 67.8297 20.2172C67.7876 20.0952 67.7034 20.3429 67.5234 20.2553C67.6115 20.1562 67.5234 20.1867 67.5234 20.0457C67.6727 20.0076 67.7455 19.8856 67.8297 19.7865C68.0938 19.7942 68.1474 20.0152 68.1896 20.2439C68.3925 20.1486 68.4346 20.1943 68.5992 20.0914C68.5456 20.2667 68.2853 20.5068 68.4996 20.6516C68.4652 20.705 68.381 20.705 68.3963 20.8041C68.2317 20.846 68.2355 20.724 68.1398 20.7012C68.201 20.8269 68.1934 21.0213 68.4499 20.9565C68.6413 20.926 68.3925 20.7431 68.6528 20.7545C68.6949 20.8993 68.58 20.8879 68.5992 21.0099C68.6413 20.9832 68.6834 20.9565 68.7523 20.9603C68.6719 20.6631 68.9093 20.1486 69.2117 20.2477C68.7906 20.4649 68.9705 20.8498 68.9591 21.1661C69.0471 21.067 69.1811 21.0099 69.2117 20.8612C69.1773 20.8155 69.1198 20.785 69.0586 20.7583C69.1734 20.644 69.1084 20.2858 69.4682 20.301C69.4529 20.4192 69.2921 20.3963 69.3151 20.5564C69.4223 20.3925 69.5448 20.3201 69.7745 20.4039C69.6558 20.7012 70.2224 20.8803 69.9812 21.1204C70.0693 21.2004 70.0846 21.3528 70.2339 21.3757C70.2033 21.4634 69.9468 21.7378 69.9812 21.4253C69.7362 21.5243 70.0884 21.6539 69.9276 21.833C69.7975 21.7644 69.7668 21.6692 69.8242 21.8864C69.629 21.7759 69.5103 21.5891 69.3113 21.4786C69.5907 21.5358 69.6137 21.3376 69.7209 21.2233C69.629 21.0365 69.5716 21.0746 69.5678 20.865C69.5371 20.8955 69.3227 20.9832 69.3113 20.865C69.3457 20.9298 69.2691 21.067 69.3113 21.1699C69.25 21.2766 69.1122 21.3147 69.005 21.3757C69.0548 21.4443 69.0892 21.5282 69.1581 21.5777C69.0816 21.6882 69.0318 21.5434 68.9055 21.631C68.8442 21.5624 68.8863 21.551 68.9055 21.4786C68.2661 21.532 68.1015 22.3323 68.8021 22.4504C68.8251 22.5571 68.7676 22.5838 68.7523 22.6524C68.8289 22.74 68.8595 22.5876 68.8021 22.8048C69.1237 22.5419 69.1581 22.2332 69.2117 21.7835C69.6213 21.7263 69.6022 22.0388 69.6213 22.2446C69.7477 22.2522 69.7821 22.1684 69.8242 22.0922L69.6213 23.1631C69.5754 23.2698 69.7553 23.3917 69.7745 23.266C69.9582 23.4184 69.5065 23.3689 69.5218 23.5213C69.4299 23.4832 69.5103 23.4298 69.5218 23.3689C68.9361 23.5746 68.9361 24.1082 68.4461 24.3368C68.4116 24.5274 68.5303 24.5541 68.4958 24.7446C68.2776 24.7865 68.3848 24.516 68.2891 24.4397C67.6919 24.3368 67.2095 24.6455 67.5196 25.2057C67.868 25.3086 67.757 24.9657 68.0326 25.0038C68.0556 25.1638 67.9599 25.2019 67.9292 25.3086C67.9522 25.423 68.201 25.3086 68.2355 25.4077C68.2049 25.5983 68.1513 25.705 68.2891 25.8155C68.5992 25.8155 68.6834 25.7317 68.9552 25.6097C68.9552 25.6097 68.8901 25.7088 68.9055 25.7126C69.2309 25.7774 69.7898 25.8155 70.1343 26.0708C70.1611 26.5739 70.8311 26.4329 71.1106 26.6844C71.1412 26.9512 70.9727 27.0236 70.8579 27.1417C71.1067 27.58 70.5516 27.641 70.3449 27.9077C70.2301 28.0525 70.276 28.6394 69.8855 28.5213C69.8664 28.6432 69.9812 28.6318 69.9353 28.7766C69.7132 28.7499 69.6826 29.1006 69.5295 28.9824C69.6635 29.1196 69.5601 29.2606 69.4261 29.3902C69.4644 29.4397 69.5218 29.4664 69.5792 29.4931C69.5295 29.5998 69.472 29.6951 69.4261 29.798C69.4988 29.9314 69.5448 30.0876 69.7324 30.1028C68.8212 30.2705 69.0433 29.2073 69.0662 28.4717C69.0777 28.0792 69.1658 27.4428 68.76 27.3475C68.6068 27.1608 68.5341 26.8902 68.3503 26.7339C68.3542 26.4748 68.3657 26.2957 68.5533 26.1204C68.5915 25.9641 68.4997 25.9374 68.5035 25.8155C68.2087 26.0213 67.9139 25.4878 67.6306 25.3544C66.9645 25.4878 66.8305 24.7027 66.5549 24.2835C66.4706 24.4207 66.6544 24.7256 66.7578 24.8437C66.6123 24.7332 66.1031 24.0205 66.0916 23.567C66.084 23.3003 66.329 23.1173 66.2945 22.8544C66.2754 22.6867 66.0572 22.4847 66.1912 22.1913C65.973 22.035 65.9921 21.6006 65.7165 21.41C65.4293 22.2751 65.2686 23.2012 65.2686 24.1653C65.2686 29.0053 69.2079 32.9306 74.0699 32.9306C77.1095 32.9306 79.7894 31.3948 81.3705 29.0624C81.336 29.0548 81.3015 29.0434 81.2556 29.0281C81.2977 28.9138 81.1982 28.689 81.1522 28.8262L81.1561 28.8185ZM69.8817 20.0419C69.8242 19.9352 69.4299 19.8361 69.4223 19.9923C69.5142 20.1486 69.5792 20.019 69.7783 20.0419C69.7707 20.1028 69.7898 20.1333 69.8281 20.1448C69.7285 20.3734 69.3763 20.1676 69.2117 20.1448C69.3457 19.9847 69.2883 19.9047 69.2117 19.737C69.4108 20 69.6673 19.5846 69.7247 19.7865C69.8778 19.6951 69.6941 19.516 69.5218 19.5846C69.5333 19.2835 69.5639 19.112 69.8281 18.9748C69.9085 19.1196 69.8702 19.375 70.1879 19.2797C70.142 19.2035 70.0233 19.2073 69.9314 19.1806C69.9123 19.0548 70.0271 19.0701 69.985 18.9253C70.253 18.8757 70.9383 18.689 71.1106 19.0777C70.6282 19.4397 70.1152 19.6493 69.8817 20.0457V20.0419ZM70.9574 22.1875C70.5248 22.0731 70.5248 21.3338 70.8043 21.0632C70.7507 21.0975 70.7507 21.1814 70.6512 21.1661C70.6282 21.006 70.7162 20.9184 70.8043 21.0137C70.6091 20.8117 70.877 20.3391 70.6014 20.1486C70.4253 20.1067 70.3832 20.24 70.2951 20.1486C70.3104 19.9542 70.4138 19.9542 70.2951 19.7408C70.5287 19.6303 70.8081 19.7408 70.7048 19.4321C70.9995 19.2606 71.3632 19.0091 71.5738 19.2797C71.4819 18.9557 72.4275 18.8185 72.4466 19.2797C72.4045 19.3064 72.3624 19.333 72.2935 19.3292C72.3088 19.5312 72.4696 19.2721 72.4466 19.4817C72.6036 19.4969 72.6917 19.3635 72.8027 19.4817C72.707 19.5884 72.6381 19.7294 72.4466 19.737C72.6304 19.8132 72.3969 20.0685 72.3433 20.1981C72.305 20.3544 72.4849 19.9733 72.4466 20.6059H72.2935C72.3433 20.6059 72.3777 20.6059 72.4466 20.6554C72.328 20.6554 72.3012 20.9298 72.1365 20.987C72.1595 21.0327 72.1825 21.0403 72.2399 21.048C71.9337 21.5586 71.0991 21.5053 70.9613 22.1836L70.9574 22.1875Z" fill="black"/>
</g>
<defs>
<clipPath id="clip0_460_948">
<rect width="146.441" height="60" fill="white"/>
</clipPath>
</defs>
</svg>
